0
SECTION
2
HEADER
9
$INSUNITS
70
4
9
$ACADVER
1
AC1014
9
$HANDSEED
5
FFFF
0
ENDSEC
0
SECTION
2
TABLES
0
TABLE
2
VPORT
5
8
100
AcDbSymbolTable
0
ENDTAB
0
TABLE
2
LTYPE
5
5
100
AcDbSymbolTable
0
LTYPE
5
14
100
AcDbSymbolTableRecord
100
AcDbLinetypeTableRecord
2
BYBLOCK
70
0
0
LTYPE
5
15
100
AcDbSymbolTableRecord
100
AcDbLinetypeTableRecord
2
BYLAYER
70
0
0
ENDTAB
0
TABLE
2
LAYER
5
2
100
AcDbSymbolTable
70
2
0
LAYER
5
50
100
AcDbSymbolTableRecord
100
AcDbLayerTableRecord
2
0
70
0
6
CONTINUOUS
0
ENDTAB
0
TABLE
2
STYLE
5
3
100
AcDbSymbolTable
70
1
0
STYLE
5
11
100
AcDbSymbolTableRecord
100
AcDbTextStyleTableRecord
2
STANDARD
70
0
0
ENDTAB
0
TABLE
2
VIEW
5
6
100
AcDbSymbolTable
70
0
0
ENDTAB
0
TABLE
2
UCS
5
7
100
AcDbSymbolTable
70
0
0
ENDTAB
0
TABLE
2
APPID
5
9
100
AcDbSymbolTable
70
2
0
APPID
5
12
100
AcDbSymbolTableRecord
100
AcDbRegAppTableRecord
2
ACAD
70
0
0
ENDTAB
0
TABLE
2
DIMSTYLE
5
A
100
AcDbSymbolTable
70
1
0
ENDTAB
0
TABLE
2
BLOCK_RECORD
5
1
100
AcDbSymbolTable
70
1
0
BLOCK_RECORD
5
1F
100
AcDbSymbolTableRecord
100
AcDbBlockTableRecord
2
*MODEL_SPACE
0
BLOCK_RECORD
5
1B
100
AcDbSymbolTableRecord
100
AcDbBlockTableRecord
2
*PAPER_SPACE
0
ENDTAB
0
ENDSEC
0
SECTION
2
BLOCKS
0
BLOCK
5
20
100
AcDbEntity
100
AcDbBlockBegin
2
*MODEL_SPACE
0
ENDBLK
5
21
100
AcDbEntity
100
AcDbBlockEnd
0
BLOCK
5
1C
100
AcDbEntity
100
AcDbBlockBegin
2
*PAPER_SPACE
0
ENDBLK
5
1D
100
AcDbEntity
100
AcDbBlockEnd
0
ENDSEC
0
SECTION
2
ENTITIES
0
LWPOLYLINE
5
100
100
AcDbEntity
8
0
100
AcDbPolyline
90
22
70
1
43
0.0
10
31.970946847542692
20
-4.7691386175523522
10
36.213587534661983
20
-9.011779304671645
10
36.213587534661976
20
-19.76913861755235
10
11.213587534661977
20
-19.76913861755235
10
11.213587534661986
20
-39.467138617552337
10
-80.286412465338017
20
-39.467138617552337
10
-80.286412465338017
20
21.432861382447676
10
-62.086412465338014
20
21.432861382447665
10
-62.086412465338014
20
51.632861382447658
10
-80.286412465338017
20
51.632861382447658
10
-80.286412465338017
20
112.53286138244768
10
11.213587534661942
20
112.53286138244768
10
11.213587534661947
20
105.23086138244764
10
36.213587534661926
20
105.23086138244766
10
36.213587534661954
20
94.473502069566962
10
31.970946847542653
20
90.230861382447642
10
11.213587534661951
20
90.230861382447657
10
11.213587534661954
20
60.282861382447194
10
21.213587534662032
20
60.282861382429822
10
21.213587534661961
20
25.282861382448118
10
11.213587534661954
20
25.282861382448143
10
11.213587534661986
20
-4.7691386175523487
0
CIRCLE
5
101
100
AcDbEntity
8
0
100
AcDbCircle
10
-65.686412465338009
20
16.424581382437694
30
0
40
1.0500000000000043
210
-5.6973406474558666e-65
220
-1.3684555315672042e-48
230
1
0
CIRCLE
5
102
100
AcDbEntity
8
0
100
AcDbCircle
10
-76.686412465337924
20
85.878721382442663
30
0
40
1.0499999999999954
210
-5.6973406474558674e-65
220
-3.5112572660191415e-97
230
1
0
CIRCLE
5
103
100
AcDbEntity
8
0
100
AcDbCircle
10
-76.686412465337924
20
-12.821278617557311
30
0
40
1.0500000000000043
210
-5.6973406474558666e-65
220
-1.3684555315672042e-48
230
1
0
CIRCLE
5
104
100
AcDbEntity
8
0
100
AcDbCircle
10
-76.686412465338009
20
56.632861382447643
30
0
40
1.0499999999999954
210
-5.6973406474558674e-65
220
-3.5112572660191415e-97
230
1
0
CIRCLE
5
105
100
AcDbEntity
8
0
100
AcDbCircle
10
-76.686412465338009
20
16.424581382437715
30
0
40
1.0499999999999954
210
-5.6973406474558674e-65
220
-3.5112572660191415e-97
230
1
0
CIRCLE
5
106
100
AcDbEntity
8
0
100
AcDbCircle
10
-65.686412465337924
20
85.878721382442677
30
0
40
1.0500000000000043
210
-5.6973406474558666e-65
220
-1.3684555315672042e-48
230
1
0
CIRCLE
5
107
100
AcDbEntity
8
0
100
AcDbCircle
10
-65.686412465337924
20
-12.821278617557329
30
0
40
1.0500000000000043
210
-5.6973406474558666e-65
220
-1.3684555315672042e-48
230
1
0
CIRCLE
5
108
100
AcDbEntity
8
0
100
AcDbCircle
10
-65.686412465338023
20
56.632861382447658
30
0
40
1.0500000000000043
210
-5.6973406474558666e-65
220
-1.3684555315672042e-48
230
1
0
CIRCLE
5
109
100
AcDbEntity
8
0
100
AcDbCircle
10
-63.300026297569147
20
-35.46713861755233
30
0
40
1.5500000000000025
210
-5.6973406474558674e-65
220
-3.5112572660191415e-97
230
1
0
CIRCLE
5
110
100
AcDbEntity
8
0
100
AcDbCircle
10
28.213587534661926
20
97.730861382447657
30
0
40
1.5500000000000025
210
-5.6973406474558674e-65
220
-3.5112572660191415e-97
230
1
0
CIRCLE
5
111
100
AcDbEntity
8
0
100
AcDbCircle
10
0.19997370243072243
20
107.42458181083202
30
0
40
1.5500000000000025
210
-5.6973406474558674e-65
220
-3.5112572660191415e-97
230
1
0
CIRCLE
5
112
100
AcDbEntity
8
0
100
AcDbCircle
10
16.71358753466194
20
30.882861382447842
30
0
40
1.5500000000000025
210
-5.6973406474558674e-65
220
-3.5112572660191415e-97
230
1
0
CIRCLE
5
113
100
AcDbEntity
8
0
100
AcDbCircle
10
-71.300026297569147
20
109.03286138244768
30
0
40
1.5499999999999934
210
-3.4211388289180119e-49
220
1.3684555315672045e-48
230
1
0
CIRCLE
5
114
100
AcDbEntity
8
0
100
AcDbCircle
10
28.213587534661926
20
-12.26913861755234
30
0
40
1.5500000000000025
210
-5.6973406474558674e-65
220
-3.5112572660191415e-97
230
1
0
CIRCLE
5
115
100
AcDbEntity
8
0
100
AcDbCircle
10
-36.300026297569282
20
-29.075419008731842
30
0
40
1.549999999999998
210
-5.6973406474558683e-65
220
1.3684555315672042e-48
230
1
0
CIRCLE
5
116
100
AcDbEntity
8
0
100
AcDbCircle
10
16.713587534661976
20
54.682861382447484
30
0
40
1.549999999999998
210
-5.6973406474558683e-65
220
1.3684555315672042e-48
230
1
0
CIRCLE
5
117
100
AcDbEntity
8
0
100
AcDbCircle
10
-42.800026297569275
20
107.42458181083202
30
0
40
1.5500000000000069
210
-5.6973406474558674e-65
220
-3.5112572660191415e-97
230
1
0
CIRCLE
5
118
100
AcDbEntity
8
0
100
AcDbCircle
10
-6.3000262975692811
20
-29.075419008731842
30
0
40
1.5500000000000003
210
-5.6973406474558674e-65
220
-3.5112572660191415e-97
230
1
0
ENDSEC
0
SECTION
2
OBJECTS
0
DICTIONARY
5
C
100
AcDbDictionary
3
ACAD_GROUP
350
D
3
ACAD_MLINESTYLE
350
17
0
DICTIONARY
5
D
100
AcDbDictionary
0
DICTIONARY
5
1A
330
C
100
AcDbDictionary
0
DICTIONARY
5
17
100
AcDbDictionary
0
ENDSEC
0
EOF
